<mxfile host="Electron" modified="2023-11-01T02:40:11.919Z" agent="Mozilla/5.0 (Windows NT 10.0; Win64; x64) AppleWebKit/537.36 (KHTML, like Gecko) draw.io/21.2.1 Chrome/112.0.5615.87 Electron/24.1.2 Safari/537.36" etag="7_soLK_D5pl2ZZrEg_tS" version="21.2.1" type="device">
  <diagram name="Page-1" id="4UufLb_JMBrUuQxe8mLm">
    <mxGraphModel dx="1182" dy="683" grid="1" gridSize="10" guides="1" tooltips="1" connect="1" arrows="1" fold="1" page="1" pageScale="1" pageWidth="827" pageHeight="1169" math="0" shadow="0">
      <root>
        <mxCell id="0" />
        <mxCell id="1" parent="0" />
        <mxCell id="WCEH-KYkY3dfa1sMzXpO-2" value="No input" style="edgeStyle=orthogonalEdgeStyle;rounded=0;orthogonalLoop=1;jettySize=auto;html=1;entryX=0;entryY=0.75;entryDx=0;entryDy=0;exitX=0;exitY=0.25;exitDx=0;exitDy=0;" edge="1" parent="1" source="WCEH-KYkY3dfa1sMzXpO-1" target="WCEH-KYkY3dfa1sMzXpO-1">
          <mxGeometry relative="1" as="geometry">
            <mxPoint x="310" y="230" as="targetPoint" />
            <Array as="points">
              <mxPoint x="260" y="135" />
              <mxPoint x="260" y="165" />
            </Array>
          </mxGeometry>
        </mxCell>
        <mxCell id="WCEH-KYkY3dfa1sMzXpO-3" value="Up/right/down/left" style="edgeStyle=orthogonalEdgeStyle;rounded=0;orthogonalLoop=1;jettySize=auto;html=1;entryX=0.5;entryY=0;entryDx=0;entryDy=0;" edge="1" parent="1" source="WCEH-KYkY3dfa1sMzXpO-1" target="WCEH-KYkY3dfa1sMzXpO-4">
          <mxGeometry relative="1" as="geometry">
            <mxPoint x="414" y="260" as="targetPoint" />
          </mxGeometry>
        </mxCell>
        <mxCell id="WCEH-KYkY3dfa1sMzXpO-6" value="Numeric input" style="edgeStyle=orthogonalEdgeStyle;rounded=0;orthogonalLoop=1;jettySize=auto;html=1;entryX=0.992;entryY=0.617;entryDx=0;entryDy=0;entryPerimeter=0;" edge="1" parent="1" source="WCEH-KYkY3dfa1sMzXpO-1" target="WCEH-KYkY3dfa1sMzXpO-9">
          <mxGeometry relative="1" as="geometry">
            <mxPoint x="550.0000000000002" y="480" as="targetPoint" />
            <Array as="points">
              <mxPoint x="540" y="150" />
              <mxPoint x="540" y="457" />
            </Array>
          </mxGeometry>
        </mxCell>
        <mxCell id="WCEH-KYkY3dfa1sMzXpO-1" value="Idle" style="rounded=0;whiteSpace=wrap;html=1;" vertex="1" parent="1">
          <mxGeometry x="354" y="120" width="120" height="60" as="geometry" />
        </mxCell>
        <mxCell id="WCEH-KYkY3dfa1sMzXpO-7" value="!ok pressed" style="edgeStyle=orthogonalEdgeStyle;rounded=0;orthogonalLoop=1;jettySize=auto;html=1;exitX=0;exitY=0.25;exitDx=0;exitDy=0;entryX=0;entryY=0.75;entryDx=0;entryDy=0;" edge="1" parent="1" source="WCEH-KYkY3dfa1sMzXpO-4" target="WCEH-KYkY3dfa1sMzXpO-4">
          <mxGeometry relative="1" as="geometry">
            <mxPoint x="270" y="350" as="targetPoint" />
            <Array as="points">
              <mxPoint x="260" y="285" />
              <mxPoint x="260" y="315" />
            </Array>
          </mxGeometry>
        </mxCell>
        <mxCell id="WCEH-KYkY3dfa1sMzXpO-8" value="OK" style="edgeStyle=orthogonalEdgeStyle;rounded=0;orthogonalLoop=1;jettySize=auto;html=1;" edge="1" parent="1" source="WCEH-KYkY3dfa1sMzXpO-4">
          <mxGeometry relative="1" as="geometry">
            <mxPoint x="414" y="420" as="targetPoint" />
          </mxGeometry>
        </mxCell>
        <mxCell id="WCEH-KYkY3dfa1sMzXpO-4" value="Navigate Menu" style="rounded=0;whiteSpace=wrap;html=1;" vertex="1" parent="1">
          <mxGeometry x="354" y="270" width="120" height="60" as="geometry" />
        </mxCell>
        <mxCell id="WCEH-KYkY3dfa1sMzXpO-12" style="edgeStyle=orthogonalEdgeStyle;rounded=0;orthogonalLoop=1;jettySize=auto;html=1;entryX=0.5;entryY=0;entryDx=0;entryDy=0;" edge="1" parent="1" source="WCEH-KYkY3dfa1sMzXpO-9" target="WCEH-KYkY3dfa1sMzXpO-10">
          <mxGeometry relative="1" as="geometry" />
        </mxCell>
        <mxCell id="WCEH-KYkY3dfa1sMzXpO-9" value="Configure Program" style="rounded=0;whiteSpace=wrap;html=1;" vertex="1" parent="1">
          <mxGeometry x="354" y="420" width="120" height="60" as="geometry" />
        </mxCell>
        <mxCell id="WCEH-KYkY3dfa1sMzXpO-13" style="edgeStyle=orthogonalEdgeStyle;rounded=0;orthogonalLoop=1;jettySize=auto;html=1;entryX=0.5;entryY=0;entryDx=0;entryDy=0;" edge="1" parent="1" source="WCEH-KYkY3dfa1sMzXpO-10" target="WCEH-KYkY3dfa1sMzXpO-11">
          <mxGeometry relative="1" as="geometry" />
        </mxCell>
        <mxCell id="WCEH-KYkY3dfa1sMzXpO-10" value="Prelim Start" style="rounded=0;whiteSpace=wrap;html=1;" vertex="1" parent="1">
          <mxGeometry x="354" y="555" width="120" height="60" as="geometry" />
        </mxCell>
        <mxCell id="WCEH-KYkY3dfa1sMzXpO-11" value="Running" style="rounded=0;whiteSpace=wrap;html=1;" vertex="1" parent="1">
          <mxGeometry x="354" y="680" width="120" height="60" as="geometry" />
        </mxCell>
      </root>
    </mxGraphModel>
  </diagram>
</mxfile>
